<svg xmlns="http://www.w3.org/2000/svg" version="1.1" xmlns:xlink="http://www.w3.org/1999/xlink" xmlns:svgjs="http://svgjs.com/svgjs" width="1440" height="560" preserveAspectRatio="none" viewBox="0 0 1440 560">
    <g mask="url(&quot;#SvgjsMask1013&quot;)" fill="none">
        <rect width="1440" height="560" x="0" y="0" fill="#282828"></rect>
        <path d="M0,405.757C98.437,415.004,198.332,490.023,287.59,447.498C376.419,405.177,413.812,294.707,434.842,198.586C453.635,112.688,401.882,30.619,398.017,-57.226C393.55,-158.751,478.34,-280.037,410.454,-355.66C342.166,-431.731,210.943,-356.874,110.762,-377.22C22.887,-395.067,-49.467,-485.936,-137.084,-466.864C-224.831,-447.764,-265.849,-349.17,-325.695,-282.216C-386.608,-214.068,-468.329,-159.114,-491.247,-70.631C-515.125,21.559,-495.29,121.583,-452.292,206.555C-410.2,289.737,-340.161,358.969,-254.844,396.545C-175.443,431.515,-86.381,397.643,0,405.757" fill="#0453AB"></path>
        <path d="M1440 1114.319C1541.95 1102.9470000000001 1596.544 991.448 1674.1970000000001 924.418 1739.51 868.04 1819.525 828.0070000000001 1859.976 751.797 1901.753 673.0889999999999 1898.252 582.421 1902.958 493.437 1908.784 383.26800000000003 1943.3020000000001 266.416 1890.777 169.399 1834.9850000000001 66.34699999999998 1731.603-21.94100000000003 1615.466-37.58299999999997 1501.347-52.952999999999975 1406.199 41.039999999999964 1302.026 90.10399999999998 1215.188 131.00400000000002 1112.327 149.40699999999998 1054.996 226.39299999999997 998.9259999999999 301.685 1015.548 404.178 999.2850000000001 496.635 982.385 592.716 925.176 688.298 957.5609999999999 780.322 990.5129999999999 873.957 1088.02 924.1949999999999 1169.634 980.697 1253.996 1039.101 1338.026 1125.693 1440 1114.319" fill="#0453AB"></path>
    </g>
    <defs>
        <mask id="SvgjsMask1013">
            <rect width="1440" height="560" fill="#ffffff"></rect>
        </mask>
    </defs>
</svg>